<?xml version="1.0" encoding="UTF-8" standalone="no"?>
<svg
   xmlns:dc="http://purl.org/dc/elements/1.1/"
   xmlns:cc="http://creativecommons.org/ns#"
   xmlns:rdf="http://www.w3.org/1999/02/22-rdf-syntax-ns#"
   xmlns:svg="http://www.w3.org/2000/svg"
   xmlns="http://www.w3.org/2000/svg"
   id="Layer_1"
   data-name="Layer 1"
   viewBox="0 0 24 24"
   version="1.1">
  <metadata
     id="metadata21">
    <rdf:RDF>
      <cc:Work
         rdf:about="">
        <dc:format>image/svg+xml</dc:format>
        <dc:type
           rdf:resource="http://purl.org/dc/dcmitype/StillImage" />
        <dc:title></dc:title>
      </cc:Work>
    </rdf:RDF>
  </metadata>
  <defs
     id="defs4">
    <style
       type="text/css">.cls-1{fill:none;}.cls-2{fill:#2ea1ff;}</style>
  </defs>
  <rect
     class="cls-1"
     width="24"
     height="24"
     id="rect6" />
  <g
     id="g858"
     transform="matrix(0.97280091,0,0,0.973611,0.19836074,0.14707969)">
    <g
       id="g850"
       transform="matrix(1.1019003,0,0,1.0840574,-1.2324845,-0.22773247)">
      <polyline
         class="cls-2"
         points="7.35 6.87 5.58 6.84 1.2 11.3 11.11 20.19 11.12 20.18 4.35 11.39"
         id="polyline8" />
      <polyline
         class="cls-2"
         points="17.28 7.38 19.02 7.49 22.99 11.88 12.59 19.21 12.59 19.2 19.89 11.72"
         id="polyline10" />
      <path
         class="cls-2"
         d="M 7,12.18 5.79,10.79 5.66,4.21 18.33,6 c 0,0 0,0 0,0 L 7.9,6.67"
         id="path12" />
      <path
         class="cls-2"
         d="m 12.78,9 h -2 l -0.17,1.17 h 1.85 c 0.91,0 1.18,0.4 1.17,1.08 a 5.14,5.14 0 0 1 -0.18,1.12 1.34,1.34 0 0 1 -1.51,1.07 H 10.1 l -0.17,1.17 h 2 a 2.32,2.32 0 0 0 1.35,-0.29 3.18,3.18 0 0 0 1.33,-2.42 C 14.86,10.21 14.54,9 12.74,9"
         id="path14" />
    </g>
    <path
       class="cls-2"
       d="m 9.9653061,11.947755 c -0.54,0 -0.61,0.42 -0.66,0.68 -0.05,0.26 -0.09,0.48 -0.09,0.48 h 2.0999999 c 0.53,0 0.61,-0.43 0.66,-0.69 0.05,-0.26 0.09,-0.47 0.09,-0.47 z"
       id="path16" />
  </g>
</svg>
