<?xml version="1.0" encoding="UTF-8" standalone="no"?>
<svg
   xmlns:dc="http://purl.org/dc/elements/1.1/"
   xmlns:cc="http://creativecommons.org/ns#"
   xmlns:rdf="http://www.w3.org/1999/02/22-rdf-syntax-ns#"
   xmlns:svg="http://www.w3.org/2000/svg"
   xmlns="http://www.w3.org/2000/svg"
   xmlns:sodipodi="http://sodipodi.sourceforge.net/DTD/sodipodi-0.dtd"
   xmlns:inkscape="http://www.inkscape.org/namespaces/inkscape"
   version="1.1"
   id="Layer_1"
   x="0px"
   y="0px"
   viewBox="0 0 24 24"
   style="enable-background:new 0 0 24 24;"
   xml:space="preserve"
   sodipodi:docname="ic-transaction-sent.svg"
   inkscape:version="1.0.2 (e86c870879, 2021-01-15, custom)"><sodipodi:namedview
   pagecolor="#ffffff"
   bordercolor="#666666"
   borderopacity="1"
   objecttolerance="10"
   gridtolerance="10"
   guidetolerance="10"
   inkscape:pageopacity="0"
   inkscape:pageshadow="2"
   inkscape:window-width="3840"
   inkscape:window-height="2066"
   id="namedview8"
   showgrid="false"
   inkscape:zoom="30.625"
   inkscape:cx="12"
   inkscape:cy="12"
   inkscape:window-x="3829"
   inkscape:window-y="-11"
   inkscape:window-maximized="1"
   inkscape:current-layer="Layer_1" /><metadata
   id="metadata13"><rdf:RDF><cc:Work
       rdf:about=""><dc:format>image/svg+xml</dc:format><dc:type
         rdf:resource="http://purl.org/dc/dcmitype/StillImage" /><dc:title /></cc:Work></rdf:RDF></metadata><defs
   id="defs11" />
<style
   type="text/css"
   id="style2">
	.st0{fill:none;}
	.st1{fill:#2EA1FF;}
</style>
<rect
   class="st0"
   width="24"
   height="24"
   id="rect4" />
<path
   class="st1"
   d="m 23.734694,12 v 0 c 0,-0.5 -0.3,-1 -0.8,-1.2 L 2.1346939,1.7 c -0.5,-0.2 -1.1,0 -1.50000002,0.4 -0.4,0.5 -0.4,1.1 0,1.6 L 6.9346939,12 c 0,0 0,0 0,0.1 l -6.30000002,8.3 c -0.4,0.5 -0.4,1.1 0,1.6 l 0.1,0.1 C 1.1346939,22.5 1.6346939,22.6 2.1346939,22.4 L 22.934694,13.2 c 0.5,-0.2 0.8,-0.7 0.8,-1.2 z M 1.6346939,3 c 0,0 0,0 0,0 0,-0.1 0,0 0,0 L 21.134694,11.4 H 8.0346939 c 0,0 -6.4,-8.4 -6.4,-8.4 z m 0,18.2 c 0,0 0,0 0,0 -0.1,0 0,0 0,0 0,0 6.3,-8.4 6.4,-8.4 H 21.134694 Z"
   id="path6"
   style="fill:#ff5959;fill-opacity:1" />
</svg>
