<?xml version="1.0" encoding="UTF-8" standalone="no"?>
<svg
   xmlns:dc="http://purl.org/dc/elements/1.1/"
   xmlns:cc="http://creativecommons.org/ns#"
   xmlns:rdf="http://www.w3.org/1999/02/22-rdf-syntax-ns#"
   xmlns:svg="http://www.w3.org/2000/svg"
   xmlns="http://www.w3.org/2000/svg"
   id="Layer_1"
   data-name="Layer 1"
   viewBox="0 0 24 24"
   version="1.1">
  <metadata
     id="metadata17">
    <rdf:RDF>
      <cc:Work
         rdf:about="">
        <dc:format>image/svg+xml</dc:format>
        <dc:type
           rdf:resource="http://purl.org/dc/dcmitype/StillImage" />
        <dc:title></dc:title>
      </cc:Work>
    </rdf:RDF>
  </metadata>
  <defs
     id="defs4">
    <style
       id="style2">.cls-1{fill:none;}.cls-2{fill:#3aa34b;}</style>
  </defs>
  <rect
     class="cls-1"
     width="24"
     height="24"
     id="rect6" />
  <path
     class="cls-2"
     d="M22.64,15.68a.57.57,0,0,0-.57.57v2.18a2.28,2.28,0,0,1-2.28,2.28H4.21a2.28,2.28,0,0,1-2.28-2.28V16.25a.58.58,0,0,0-1.15,0v2.18a3.44,3.44,0,0,0,3.43,3.43H19.79a3.44,3.44,0,0,0,3.43-3.43V16.25A.57.57,0,0,0,22.64,15.68Z"
     id="path8"
     style="fill:#008d36;fill-opacity:1" />
  <path
     class="cls-2"
     d="M19.18,17.93H4.82a.57.57,0,0,0-.57.57.58.58,0,0,0,.57.57H19.18a.58.58,0,0,0,.57-.57A.57.57,0,0,0,19.18,17.93Z"
     id="path10"
     style="fill:#008d36;fill-opacity:1" />
  <path
     class="cls-2"
     d="M17.78,9.89a.58.58,0,0,0-.81,0l-4.4,3.93V2.71a.57.57,0,0,0-1.14,0V13.78L7,9.85a.58.58,0,0,0-.81,0,.57.57,0,0,0,0,.81L11.05,15A1.4,1.4,0,0,0,13,15l4.78-4.27A.57.57,0,0,0,17.78,9.89Z"
     id="path12"
     style="fill:#008d36;fill-opacity:1" />
</svg>
