<?xml version="1.0" encoding="UTF-8" standalone="no"?>
<svg
   xmlns:dc="http://purl.org/dc/elements/1.1/"
   xmlns:cc="http://creativecommons.org/ns#"
   xmlns:rdf="http://www.w3.org/1999/02/22-rdf-syntax-ns#"
   xmlns:svg="http://www.w3.org/2000/svg"
   xmlns="http://www.w3.org/2000/svg"
   id="Layer_1"
   data-name="Layer 1"
   viewBox="0 0 114 97"
   version="1.1">
  <metadata
     id="metadata21">
    <rdf:RDF>
      <cc:Work
         rdf:about="">
        <dc:format>image/svg+xml</dc:format>
        <dc:type
           rdf:resource="http://purl.org/dc/dcmitype/StillImage" />
        <dc:title></dc:title>
      </cc:Work>
    </rdf:RDF>
  </metadata>
  <defs
     id="defs4">
    <style
       id="style2">.cls-1{fill:none;}.cls-2{fill:#2ea1ff;}</style>
  </defs>
  <rect
     class="cls-1"
     width="114"
     height="97"
     id="rect6" />
  <g
     id="g842">
    <path
       class="cls-2"
       d="M33.31,22.84l-8.93-.16L2.17,45.31l50.22,45s0,0,0,0L18.11,45.77"
       transform="translate(-0.37)"
       id="path8" />
    <path
       class="cls-2"
       d="M83.67,25.43l8.78.54,20.13,22.26L59.89,85.38a0,0,0,0,1,0,0l37-37.91"
       transform="translate(-0.37)"
       id="path10" />
    <path
       class="cls-2"
       d="M31.72,49.76l-6.3-7L24.76,9.36,89,18.59a0,0,0,1,1,0,0L36.13,21.81"
       transform="translate(-0.37)"
       id="path12" />
    <path
       class="cls-2"
       d="M60.85,33.79H50.46l-.86,5.9,9.37,0c4.62,0,6,2.06,5.94,5.47a29.44,29.44,0,0,1-.9,5.66c-.71,2.56-2.17,5.47-7.65,5.47H47.25l-.86,5.91H56.75c3.66,0,5.21-.52,6.86-1.45,3.65-2.08,5.82-6.5,6.69-12.27,1.29-8.59-.32-14.7-9.45-14.7"
       transform="translate(-0.37)"
       id="path14" />
    <path
       class="cls-2"
       d="M46.25,45.57c-2.72,0-3.11,2.18-3.37,3.49-.33,1.72-.45,2.42-.45,2.42H53.07c2.72,0,3.11-2.17,3.37-3.49.34-1.72.45-2.42.45-2.42Z"
       transform="translate(-0.37)"
       id="path16" />
  </g>
</svg>
